<svg xmlns="http://www.w3.org/2000/svg" viewBox="0 0 128 128">
  <path fill="#FF2D20" d="M27.271 28.149c-.337-.068-.665.078-.908.243-.243.165-.438.385-.592.622L14.63 47.478a1.396 1.396 0 0 0-.191.657c-.009.23.033.467.137.692l14.983 32.508a1.47 1.47 0 0 0 .521.586c.224.145.478.218.724.218.139 0 .276-.024.406-.07l20.673-7.3a1.407 1.407 0 0 0 .891-.837c.122-.297.136-.63.044-.94l-5.532-18.456 17.749-6.22c.314-.11.57-.32.738-.59.169-.27.241-.59.211-.911l-1.979-21.08a1.414 1.414 0 0 0-.479-.917c-.263-.221-.592-.334-.917-.334H27.76c-.17 0-.337.027-.49.08zm20.918 37.29l4.072 13.582-14.69 5.188-11.3-24.511 6.066-10.152 15.852 15.893zm13.13-14.024l-14.51 5.085L32.72 42.096l19.09-9.967 9.508 19.286zM49.373 71.5l-5.085-16.969 13.484-4.725 1.601 17.07-10 4.624z"/>
  <path fill="#FF2D20" d="M94.79 44.478L82.692 27.014a1.416 1.416 0 0 0-.592-.489 1.398 1.398 0 0 0-1.394.138L61.88 41.108a1.4 1.4 0 0 0-.539.845 1.407 1.407 0 0 0 .117.99l8.097 16.195-15.452 7.3a1.407 1.407 0 0 0-.741.806c-.13.316-.142.67-.032.995l11.067 32.508c.116.34.342.627.64.818a1.39 1.39 0 0 0 1.017.158l37.53-10.152c.338-.091.628-.29.835-.567.207-.277.32-.615.322-.96l.178-43.86a1.403 1.403 0 0 0-.235-.808 1.42 1.42 0 0 0-.894-.598zm-13.617 7.79l-5.893-11.787 14.6-10.152 9.056 13.464-17.763 8.476zm-14.15 6.633l-6.083-12.166 17.14-11.905 6.196 12.39-17.253 11.68zm11.86 38.012l-8.576-25.196 15.066-7.118-.09 22.097-6.4 10.217z"/>
</svg>
