<svg xmlns="http://www.w3.org/2000/svg" viewBox="0 0 128 128">
  <path fill="#FB70A9" d="M64 12C35.3 12 12 35.3 12 64s23.3 52 52 52 52-23.3 52-52S92.7 12 64 12zm0 8c24.3 0 44 19.7 44 44s-19.7 44-44 44-44-19.7-44-44 19.7-44 44-44z"/>
  <path fill="#FB70A9" d="M64 28c-19.9 0-36 16.1-36 36s16.1 36 36 36 36-16.1 36-36-16.1-36-36-36zm-8 16c4.4 0 8 3.6 8 8v16c0 4.4-3.6 8-8 8s-8-3.6-8-8V52c0-4.4 3.6-8 8-8zm16 0c4.4 0 8 3.6 8 8v16c0 4.4-3.6 8-8 8s-8-3.6-8-8V52c0-4.4 3.6-8 8-8z"/>
  <ellipse cx="56" cy="52" rx="4" ry="6" fill="#FB70A9"/>
  <ellipse cx="72" cy="52" rx="4" ry="6" fill="#FB70A9"/>
</svg>
