<svg xmlns="http://www.w3.org/2000/svg" viewBox="0 0 128 128">
  <path fill="#00618A" d="M116.948 97.807c-6.863-.187-12.104.452-16.585 2.341-1.273.537-3.305.552-3.513 2.147.7.733.807 1.829 1.365 2.731 1.07 1.73 2.876 4.052 4.488 5.268 1.762 1.33 3.577 2.751 5.465 3.902 3.358 2.047 7.107 3.217 10.34 5.268 1.906 1.21 3.799 2.733 5.658 4.097.92.675 1.537 1.724 2.732 2.147v-.194c-.628-.79-.79-1.886-1.365-2.731l-2.537-2.537c-2.48-3.292-5.629-6.184-8.976-8.585-2.669-1.916-8.642-4.504-9.755-7.609l-.195-.195c1.892-.214 4.107-.898 5.854-1.367 2.934-.786 5.556-.583 8.585-1.365l4.097-1.171v-.78c-1.531-1.571-2.623-3.651-4.292-5.073-4.37-3.72-9.138-7.437-14.048-10.537-2.724-1.718-6.089-2.835-8.976-4.292-.971-.491-2.677-.746-3.318-1.562-1.517-1.932-2.342-4.382-3.511-6.633-2.449-4.717-4.854-9.868-7.024-14.831-1.48-3.384-2.447-6.72-4.292-9.756-8.85-14.554-18.379-23.357-33.126-32.03-3.136-1.845-6.916-2.576-10.927-3.513l-6.438-.39c-1.309-.547-2.674-2.149-3.902-2.927C17.811 4.565 5.257-2.17 1.198 6.378c-2.565 5.404 3.832 10.68 6.048 13.415 1.55 1.912 3.536 4.06 4.681 6.243.753 1.436 1.003 2.886 1.559 4.49 1.376 3.973 2.689 8.293 4.483 12.04.904 1.888 1.883 3.857 3.122 5.463.752.975 2.04 1.402 2.341 2.929-.876 1.225-1.242 2.878-1.757 4.488-2.321 7.257-1.453 16.26 1.559 21.609 .925 1.642 3.101 5.175 6.046 3.807 2.578-1.198 2.003-4.909 2.733-8.196.165-.74.064-1.286.389-1.754v.193l2.343 4.684c1.733 2.794 4.801 5.717 7.415 7.608 1.354.98 2.426 2.674 4.097 3.318v-.193h-.195c-.34-.537-.873-.756-1.365-1.172-1.153-1.227-2.438-2.743-3.318-4.097-2.64-4.059-4.976-8.506-7.024-13.024-.974-2.15-1.823-4.529-2.535-6.632-.274-.81-.271-2.036-.778-2.537-.721 1.12-1.784 2.023-2.343 3.319-1.02 2.365-1.152 5.254-1.559 8.389-.228.036-.063.012-.195.193-1.86-.455-2.514-2.386-3.122-4.097-1.533-4.313-1.82-11.26-.391-16.196.37-1.277 2.04-5.299 1.365-6.439-.324-1.058-1.39-1.674-1.95-2.537-.437-.672-1.022-1.553-1.366-2.341-1.146-2.623-1.683-5.568-2.927-8.196-.594-1.254-1.596-2.522-2.537-3.513-.988-1.042-2.088-1.805-2.927-3.121-.291-.457-.677-1.185-.389-1.754.092-.29.227-.427.389-.585.363-.354 1.377-.193 1.95-.389 1.555-.533 3.26-.196 4.682-.585 1.27-.348 2.507-.94 3.707-1.365 2.281-.81 4.582-1.27 6.827-2.147 1.186-.463 2.378-1.048 3.512-1.559.558-.252 1.452-.397 1.756-.974l-1.17-.585C30.815 3.592 23.9 2.11 18.986 0c-1.524-.654-4.169-1.524-5.659-.974-1.495.551-2.983 1.789-4.485 2.927-2.97 2.25-9.16 8.99-7.607 14.829 2.25 8.46 7.87 12.44 13.219 17.168.842.743 1.942 1.127 3.122 2.147 1.124.974 2.146 2.221 3.317 3.318-.31.543-.45 1.376-.778 1.949-.604 1.048-1.598 2.048-2.146 3.122-1.765 3.46-2.675 7.33-4.292 10.927-.597 1.326-1.607 2.681-2.146 4.097-.452 1.185-.638 2.485-1.171 3.512-1.653 3.181-3.444 6.314-4.876 9.561-1.316 2.985-2.193 6.018-3.512 8.976-4.124 9.25-6.18 19.621-9.951 29.005-1.107 2.762-3.018 5.6-3.122 8.781-.043 1.29.406 2.632.781 4.098.35 1.368.563 2.732 1.17 3.902.616 1.188 1.396 2.253 2.145 3.317 1.405 1.995 2.976 3.843 4.488 5.659 2.042 2.454 4.315 4.792 6.633 6.828 2.19 1.92 4.428 3.64 6.632 5.463 1.956 1.618 4.024 3.173 5.854 4.877 1.023.952 2.05 2.173 2.341 3.513.37 1.699-.33 3.567-.585 5.268-.323 2.171-.675 4.328-.78 6.633-.112 2.445.168 4.921.194 7.414.025 2.428-.146 4.928.195 7.22.183 1.226.523 2.388.778 3.707.255 1.322.452 2.665.974 3.903.582 1.378 1.4 2.558 2.147 3.707.743 1.14 1.627 2.213 2.537 3.122 1.148 1.148 2.369 2.203 3.512 3.318.917.896 1.886 1.782 2.732 2.731.805.904 1.505 1.905 2.342 2.733.798.79 1.645 1.459 2.341 2.341.7.888 1.339 1.875 2.147 2.731.604.641 1.383 1.099 1.95 1.756.613.709 1.154 1.519 1.949 2.147v-.195c-.378-.595-1.024-.976-1.366-1.559-.587-1.006-1.148-2.097-1.755-3.122-1.073-1.811-2.179-3.668-2.927-5.658-.51-1.354-.875-2.818-1.365-4.293-.492-1.48-.997-2.939-1.365-4.487-.372-1.565-.681-3.205-1.171-4.684-.525-1.585-.853-3.194-1.366-4.681-.51-1.479-.996-2.959-1.365-4.487-.364-1.509-.596-3.053-.974-4.487-.371-1.402-.826-2.773-1.171-4.292-.341-1.503-.584-3.048-.975-4.488-.381-1.404-.862-2.778-1.171-4.292-.303-1.478-.4-3.004-.78-4.488-.374-1.458-.881-2.898-1.17-4.487-.28-1.541-.295-3.133-.585-4.682-.284-1.515-.731-3.007-.975-4.682-.233-1.598-.241-3.223-.39-4.877-.147-1.633-.403-3.254-.584-4.876-.183-1.643-.252-3.305-.39-4.878-.137-1.566-.347-3.125-.39-4.877-.043-1.781.101-3.587.195-5.268.095-1.703.128-3.424.389-5.073.267-1.687.735-3.337.975-5.073.235-1.702.276-3.427.584-5.073.299-1.594.777-3.14.975-4.877.201-1.768.168-3.559.39-5.268.218-1.684.62-3.352.779-5.073.155-1.686.118-3.399.194-5.073.079-1.725.211-3.455.39-5.073.178-1.612.474-3.206.584-4.877.114-1.726.052-3.465.195-5.073.149-1.675.48-3.331.584-5.073.102-1.713-.006-3.44.195-5.073.197-1.6.591-3.177.78-4.877.192-1.727.267-3.474.389-5.268.118-1.736.135-3.488.389-5.073.254-1.584.687-3.135.78-4.877.089-1.677-.063-3.371.195-4.877.266-1.554.793-3.061.974-4.682.183-1.639.189-3.303.39-4.877.205-1.607.546-3.196.779-4.682.245-1.56.415-3.14.585-4.683.173-1.566.286-3.147.389-4.682.107-1.598.124-3.21.195-4.877.068-1.61.105-3.227.194-4.877.086-1.59.199-3.18.195-4.683-.003-1.462-.182-2.939-.195-4.292-.017-1.724.061-3.461.195-5.073.137-1.65.402-3.29.585-4.877.189-1.636.346-3.287.585-4.877.247-1.647.603-3.277.78-4.877.179-1.622.213-3.265.39-4.877.184-1.673.48-3.333.584-5.073.101-1.69.04-3.399.195-5.073.16-1.726.474-3.434.584-5.268.106-1.768-.015-3.554.195-5.268.215-1.756.647-3.49.78-5.268.127-1.705.047-3.433.194-5.073.157-1.757.505-3.493.585-5.268.076-1.68-.068-3.377.195-5.073.273-1.762.773-3.504.974-5.268.195-1.712.2-3.448.39-5.073.196-1.684.507-3.356.585-5.073.075-1.66-.069-3.339.194-4.877.278-1.624.796-3.21.975-4.877.176-1.641.163-3.308.39-4.877.235-1.623.652-3.216.779-4.877.122-1.599.027-3.22.194-4.682.175-1.525.517-3.028.585-4.683.066-1.607-.062-3.232.195-4.682.269-1.523.766-3.01.974-4.487.214-1.521.276-3.069.39-4.488.116-1.446.204-2.9.194-4.292-.01-1.38-.191-2.766-.194-4.097-.003-1.337.09-2.685.195-3.902.109-1.272.313-2.539.39-3.902.075-1.324.02-2.663.194-3.902.185-1.318.537-2.615.585-3.902.046-1.24-.082-2.496.195-3.707.29-1.268.816-2.504.974-3.707.163-1.238.132-2.503.39-3.707.271-1.263.733-2.497.974-3.707.248-1.245.367-2.514.585-3.707.228-1.247.538-2.48.78-3.707.252-1.278.465-2.57.779-3.707.332-1.207.796-2.379.975-3.512.186-1.178.17-2.383.39-3.512.233-1.2.621-2.374.779-3.512.167-1.204.174-2.434.389-3.513.229-1.147.604-2.267.78-3.317.188-1.122.24-2.273.39-3.318.157-1.102.38-2.195.389-3.122.009-.938-.167-1.896-.194-2.732-.028-.858.003-1.728.194-2.537.208-.883.615-1.734.78-2.537.177-.868.222-1.763.39-2.537.184-.847.46-1.674.584-2.341.137-.735.166-1.496.39-2.147.24-.698.648-1.364.779-1.95.137-.614.114-1.264.195-1.756.089-.544.219-1.084.194-1.559-.027-.506-.208-1.01-.389-1.365-.19-.37-.482-.711-.78-.974-.612-.541-1.432-.927-2.146-1.171-.75-.256-1.574-.353-2.342-.389-.81-.038-1.632.012-2.341.194-.74.19-1.441.532-2.147.78-.736.259-1.481.508-2.147.974-.632.442-1.172 1.027-1.755 1.559-.576.525-1.178 1.037-1.559 1.754-.356.67-.517 1.447-.779 2.147-.268.716-.569 1.42-.78 2.341-.197.859-.277 1.76-.389 2.537-.117.813-.255 1.62-.39 2.537-.128.871-.239 1.75-.194 2.732.045.986.253 1.979.389 2.927.138.958.263 1.924.585 2.732.34.854.868 1.647 1.365 2.341.521.727 1.134 1.397 1.756 1.95.648.576 1.381 1.084 1.949 1.754.541.639.911 1.405 1.366 2.147.476.776.978 1.538 1.559 2.147.608.637 1.334 1.177 1.95 1.755.642.603 1.277 1.218 1.949 1.755.702.561 1.468 1.065 2.147 1.754.648.658 1.205 1.412 1.755 2.147.526.704.985 1.456 1.559 2.147.601.722 1.269 1.397 1.95 1.95.71.576 1.504 1.078 2.146 1.754.615.647 1.131 1.38 1.756 1.95.652.594 1.38 1.11 1.95 1.754.545.615 1.004 1.308 1.559 1.95.58.669 1.217 1.295 1.755 2.146.516.816.914 1.711 1.365 2.537.445.815.894 1.628 1.365 2.342.492.745 1.018 1.469 1.56 2.146.566.708 1.181 1.38 1.754 2.147.551.736 1.072 1.493 1.559 2.341.467.814.87 1.672 1.365 2.537.519.904 1.079 1.789 1.56 2.732.462.906.86 1.85 1.365 2.732.527.921 1.12 1.812 1.559 2.927.42 1.068.697 2.2 1.17 3.317.495 1.168 1.055 2.316 1.56 3.513.483 1.148.92 2.318 1.365 3.512.427 1.145.82 2.305 1.17 3.512.336 1.156.595 2.342.975 3.513.396 1.223.871 2.426 1.171 3.707.286 1.222.432 2.487.779 3.707.36 1.268.838 2.508 1.171 3.902.317 1.326.523 2.686.779 4.097.244 1.348.451 2.71.78 3.902.353 1.28.832 2.532 1.17 3.902.326 1.32.553 2.673.78 4.098.217 1.368.377 2.753.779 3.901.433 1.239.98 2.451 1.366 3.708.375 1.222.649 2.476.974 3.707.338 1.281.716 2.552 1.171 3.707.475 1.206 1.044 2.375 1.559 3.512.54 1.19 1.079 2.384 1.755 3.318.708.976 1.562 1.856 2.342 2.732.815.916 1.66 1.813 2.537 2.537.916.755 1.921 1.412 2.926 1.949 1.053.562 2.163 1.069 3.318 1.366 1.208.31 2.475.492 3.707.584 1.286.096 2.587.07 3.902-.195 1.27-.256 2.511-.669 3.707-1.17 1.151-.483 2.273-1.075 3.318-1.755 1.005-.654 1.95-1.4 2.731-2.342.749-.902 1.373-1.91 1.95-2.926.554-.978 1.029-2.001 1.366-3.123.322-1.07.493-2.197.584-3.317.095-1.166.04-2.353-.194-3.512-.242-1.2-.666-2.374-1.171-3.513-.527-1.189-1.178-2.339-1.95-3.317-.807-1.024-1.752-1.955-2.732-2.732-1.024-.812-2.154-1.517-3.317-1.949-1.214-.452-2.508-.752-3.707-.78-1.246-.03-2.512.126-3.708.585-1.148.441-2.249 1.065-3.122 1.95-.838.849-1.54 1.846-1.949 2.926-.394 1.04-.579 2.173-.585 3.318-.006 1.19.189 2.387.585 3.512.414 1.177.996 2.31 1.755 3.122.793.848 1.753 1.549 2.732 1.95 1.022.418 2.128.664 3.122.584 1.038-.084 2.073-.39 2.927-.974.818-.56 1.531-1.286 1.949-2.147.401-.825.601-1.745.585-2.537-.017-.825-.243-1.651-.585-2.341-.358-.722-.894-1.389-1.559-1.756-.695-.384-1.511-.594-2.147-.584-.662.01-1.334.187-1.949.584-.59.38-1.124.885-1.366 1.56-.232.647-.259 1.372-.194 1.949.068.6.277 1.2.779 1.559.522.374 1.208.593 1.755.585.571-.009 1.163-.188 1.559-.585.38-.38.611-.905.585-1.365-.027-.479-.265-.964-.585-1.171-.333-.215-.77-.286-1.17-.195-.418.096-.854.342-.975.78-.117.422-.03.902.195 1.17.234.279.587.454.975.39.404-.067.826-.334.974-.78.143-.432.057-.938-.194-1.365-.242-.412-.63-.772-1.171-.78-.564-.008-1.161.229-1.559.78-.382.529-.566 1.205-.39 1.755.183.573.595 1.097 1.171 1.366.599.279 1.31.363 1.95.194.665-.175 1.311-.553 1.754-1.171.426-.594.687-1.314.585-1.95-.106-.663-.454-1.31-.975-1.754-.543-.463-1.227-.775-1.95-.78-.751-.005-1.524.26-2.146.78-.6.501-1.072 1.159-1.171 1.95-.096.768.08 1.567.585 2.146.527.605 1.258 1.058 1.95 1.171.72.118 1.48.001 2.146-.39.64-.377 1.188-.948 1.366-1.755.17-.77.085-1.594-.39-2.341-.458-.72-1.143-1.333-1.95-1.56-.842-.236-1.75-.208-2.536.196-.754.387-1.433.997-1.755 1.754-.31.729-.392 1.545-.195 2.342.206.831.636 1.635 1.366 2.146.762.534 1.672.859 2.537.78.899-.081 1.803-.414 2.341-1.17.517-.727.784-1.6.585-2.537-.192-.901-.662-1.788-1.365-2.342-.735-.579-1.638-.96-2.537-.779-.935.188-1.86.654-2.342 1.56-.462.869-.652 1.889-.389 2.731.273.875.824 1.706 1.559 2.147.767.46 1.677.718 2.537.585.894-.139 1.785-.523 2.342-1.365.534-.808.789-1.783.585-2.732-.196-.912-.686-1.813-1.366-2.341-.71-.552-1.573-.91-2.537-.78-.913.124-1.836.511-2.341 1.366-.486.822-.695 1.8-.39 2.732.293.895.86 1.756 1.56 2.146.73.407 1.583.619 2.536.585.917-.032 1.865-.303 2.537-.974.701-.7 1.181-1.59 1.171-2.537-.01-.987-.39-1.995-1.171-2.732-.814-.77-1.827-1.327-2.732-1.17-1.018.176-2.02.628-2.537 1.56-.493.89-.683 1.933-.39 2.927.307 1.038.933 2.038 1.756 2.536.857.52 1.863.812 2.732.585 1.026-.268 2.01-.818 2.537-1.755.505-.898.73-1.953.39-2.927-.328-1.043-.98-2.054-1.95-2.537-.949-.472-2.06-.706-2.927-.39-.973.355-1.916.969-2.341 1.95-.41.944-.533 2.032-.195 2.927.364.965 1.008 1.879 1.95 2.342.978.481 2.104.727 2.927.39 1.018-.418 1.958-1.123 2.342-2.147.366-.975.432-2.088 0-2.926-.415-.806-1.083-1.522-1.95-1.755-.903-.243-1.877-.198-2.732.195-.82.377-1.593 1-.975 2.341.593 1.29 1.792 2.38 2.927 2.732 1.185.367 2.484.407 3.512-.195.986-.578 1.868-1.441 2.147-2.537.267-1.049.18-2.214-.39-3.122-.588-.938-1.453-1.773-2.537-2.147-1.13-.39-2.377-.448-3.317.195-.901.617-1.695 1.495-1.949 2.537-.244.996-.124 2.087.389 2.927.533.873 1.314 1.666 2.342 1.949 1.07.296 2.233.269 3.122-.39.853-.633 1.586-1.502 1.755-2.537.162-.99.007-2.057-.585-2.927-.617-.906-1.486-1.7-2.537-1.95-1.096-.26-2.282-.168-3.122.585-.805.721-1.453 1.676-1.559 2.732-.102 1.012.16 2.082.779 2.927.644.878 1.553 1.633 2.732 1.754 1.13.116 2.3-.093 3.122-.779.788-.658 1.402-1.565 1.559-2.537.15-.929.017-1.923-.584-2.732-.627-.844-1.491-1.561-2.537-1.754-1.056-.195-2.18-.03-3.122.584-.925.604-1.729 1.459-1.95 2.537-.211 1.032-.069 2.166.585 2.927.682.795 1.605 1.445 2.732 1.56 1.08.109 2.206-.125 2.927-.78.688-.626 1.226-1.463 1.365-2.342.133-.841.015-1.728-.584-2.341-.625-.64-1.48-1.135-2.342-1.171-.897-.037-1.843.18-2.341.78-.477.576-.796 1.296-.78 1.95.017.681.27 1.388.78 1.754.534.384 1.21.6 1.754.585.567-.016 1.159-.203 1.365-.585.199-.367.225-.834 0-1.171-.214-.32-.572-.565-.974-.584-.422-.02-.872.133-.975.585-.099.433.012.913.39 1.17.394.27.907.393 1.365.195.477-.207.944-.59.975-1.17.03-.572-.195-1.181-.585-1.56-.407-.397-.96-.696-1.559-.584-.627.118-1.254.462-1.56.975-.294.493-.412 1.096-.195 1.56.227.485.644.92 1.171.974.55.056 1.151-.1 1.56-.584.392-.465.625-1.075.389-1.56-.226-.463-.664-.874-1.171-.974-.531-.105-1.11.016-1.559.389-.431.357-.768.866-.585 1.365.177.48.565.933 1.171.975.584.04 1.203-.196 1.56-.585.343-.376.564-.883.389-1.366-.168-.461-.538-.896-1.171-.974-.661-.082-1.357.112-1.56.779-.194.64-.128 1.369.391 1.755.54.402 1.242.624 1.754.389.491-.225.932-.654.975-1.171.041-.495-.141-1.03-.585-1.365-.463-.349-1.066-.56-1.559-.39-.476.165-.925.529-.975 1.171-.048.618.176 1.287.585 1.56.427.285.979.433 1.56.194.557-.229 1.105-.664.974-1.365-.125-.672-.55-1.361-1.17-1.56-.648-.207-1.383-.128-1.756.585-.358.684-.452 1.503.195 1.95.62.428 1.424.652 1.949.194.505-.44.877-1.101.585-1.754-.28-.627-.823-1.213-1.559-1.171-.769.044-1.56.39-1.755 1.171-.187.749-.052 1.572.585 1.949.667.396 1.492.555 1.95-.194.438-.716.596-1.6-.194-2.147-.758-.524-1.728-.76-2.147.194-.401.915-.465 2.007.39 2.537.822.509 1.864.706 2.341-.195.457-.863.559-1.944-.194-2.536-.722-.568-1.677-.87-2.147.195-.45.958-.479 2.149.39 2.731.833.559 1.913.8 2.342-.194.41-.952.391-2.14-.39-2.732-.749-.567-1.745-.822-2.147.39-.385 1.162-.244 2.58.78 3.122 1.063.563 2.39.754 2.926-.584.515-1.286.326-2.884-.779-3.513-1.061-.603-2.404-.814-2.927.585-.502 1.343-.266 2.968.975 3.512 1.19.521 2.643.62 3.122-.78.459-1.341.147-2.963-.975-3.512-1.077-.528-2.438-.606-2.926.779-.47 1.333-.117 2.962 1.17 3.318 1.236.342 2.695.238 2.927-.975.223-1.165-.23-2.5-1.17-2.927-.98-.446-2.2-.491-2.732.584-.512 1.034-.445 2.347.584 2.927 1.057.596 2.367.666 2.732-.585.35-1.203-.032-2.625-1.171-3.122-1.1-.48-2.48-.431-2.927.78-.43 1.166-.118 2.56.974 2.926 1.051.352 2.332.223 2.538-.779.197-.958-.24-2.086-.975-2.341-.768-.267-1.699-.16-1.95.584-.24.712-.041 1.553.586 1.755.654.21 1.448.039 1.559-.585.107-.6-.225-1.295-.78-1.365-.577-.073-1.233.216-1.17.78.06.54.423 1.13.974.974.528-.15 1.067-.583.78-1.17-.275-.563-.823-1.092-1.56-.78-.706.3-1.393.883-.974 1.755.401.835 1.173 1.587 1.95.975.745-.587 1.412-1.427.779-2.342-.607-.878-1.54-1.617-2.537-.975-.955.617-1.801 1.554-.975 2.732.793 1.13 1.93 2.08 3.122.975 1.143-1.06 2.12-2.422.975-3.902-1.099-1.421-2.598-2.58-3.902-.974-1.253 1.543-2.215 3.43-.78 5.267 1.38 1.767 3.235 3.22 5.073.975 1.765-2.155 2.932-4.825.779-7.414-2.066-2.485-4.69-4.469-7.415-.975-2.615 3.353-4.228 7.614-.779 11.707 3.31 3.928 7.459 7 11.707.779 4.076-5.97 5.854-13.41.779-20.244-4.87-6.558-10.897-11.592-20.049-.78-8.785 10.378-11.454 23.175-.779 35.883 10.235 12.192 22.634 21.225 35.688.78zm-78.98-8.195c-.637.175-1.289.334-1.755.584-.433.232-.763.582-.975.975-.197.364-.274.796-.194 1.17.083.39.29.77.584.975.308.213.704.336 1.171.194.487-.148.99-.45 1.17-.974.173-.5.155-1.104-.194-1.365-.364-.273-.871-.393-1.17-.195-.288.19-.513.507-.39.78.118.261.399.493.779.39.365-.1.739-.363.585-.78-.148-.4-.503-.774-.975-.584-.452.182-.881.555-.585.974.284.403.754.74 1.366.585.587-.149 1.165-.52.779-1.17-.372-.625-1.006-1.136-1.95-.585-.906.529-1.757 1.377-.78 2.537.939 1.114 2.26 1.953 3.708.78 1.391-1.127 2.453-2.744.779-4.683-1.608-1.862-3.803-3.246-6.048-.78-2.156 2.368-3.51 5.546-.78 9.17 2.621 3.477 5.957 5.95 9.756.584 3.646-5.152 5.228-11.864.779-18.293-4.27-6.166-9.64-10.443-18.098-.585-8.117 9.458-10.528 21.71-.585 34.152 9.54 11.952 21.131 20.444 34.541-.584z"/>
</svg>
